<svg width="44" height="48" viewBox="0 0 44 48" fill="none" xmlns="http://www.w3.org/2000/svg">
<g id="Group">
<g id="Group_2">
<path id="Vector" d="M9.36389 14.4688H12.1756V17.2804H9.36389V14.4688Z" fill="#5A73EF"/>
<path id="Vector_2" d="M9.36389 25.7158H12.1756V28.5275H9.36389V25.7158Z" fill="#5A73EF"/>
<path id="Vector_3" d="M34.2257 27.4835C35.2632 27.4835 36.2698 27.6194 37.2276 27.8753V4.21785C37.2276 3.44183 36.5978 2.81201 35.8218 2.81201H31.5996C31.5996 6.47188 28.622 9.44944 24.9621 9.44944H13.1943C11.3649 9.44944 9.70504 8.70529 8.50352 7.50282C7.30106 6.3013 6.5569 4.64148 6.5569 2.81201H2.3347C1.55868 2.81201 0.928864 3.44183 0.928864 4.21785V39.5512H22.5769C22.3107 33.0694 27.5732 27.4835 34.2257 27.4835ZM27.2321 11.6575H29.2612C30.0372 11.6575 30.667 12.2874 30.667 13.0634C30.667 13.8394 30.0372 14.4692 29.2612 14.4692H27.2321C26.4561 14.4692 25.8263 13.8394 25.8263 13.0634C25.8263 12.2874 26.4561 11.6575 27.2321 11.6575ZM19.2048 11.6575H22.1711C22.9471 11.6575 23.5769 12.2874 23.5769 13.0634C23.5769 13.8394 22.9471 14.4692 22.1711 14.4692H19.2048C18.4287 14.4692 17.7989 13.8394 17.7989 13.0634C17.7989 12.2874 18.4287 11.6575 19.2048 11.6575ZM19.2048 17.2809H29.2612C30.0372 17.2809 30.667 17.9107 30.667 18.6867C30.667 19.4637 30.0372 20.0926 29.2612 20.0926H19.2048C18.4287 20.0926 17.7989 19.4637 17.7989 18.6867C17.7989 17.9107 18.4287 17.2809 19.2048 17.2809ZM14.9872 29.9334C14.9872 30.7104 14.3574 31.3393 13.5814 31.3393H7.95805C7.18203 31.3393 6.55222 30.7104 6.55222 29.9334V24.3101C6.55222 23.5341 7.18203 22.9042 7.95805 22.9042H13.5814C14.3574 22.9042 14.9872 23.5341 14.9872 24.3101V29.9334ZM14.9872 18.6867C14.9872 19.4637 14.3574 20.0926 13.5814 20.0926H7.95805C7.18203 20.0926 6.55222 19.4637 6.55222 18.6867V13.0634C6.55222 12.2874 7.18203 11.6575 7.95805 11.6575H13.5814C14.3574 11.6575 14.9872 12.2874 14.9872 13.0634V18.6867ZM17.7989 24.4619C17.7989 23.6859 18.4287 23.0561 19.2048 23.0561H29.2612C30.0372 23.0561 30.667 23.6859 30.667 24.4619C30.667 25.2379 30.0372 25.8678 29.2612 25.8678H19.2048C18.4287 25.8678 17.7989 25.2379 17.7989 24.4619Z" fill="#5A73EF"/>
<path id="Vector_4" d="M13.1944 6.63743H24.9622C27.0719 6.63743 28.7879 4.92137 28.7879 2.81168V1.40584C28.7879 0.629815 28.1591 0 27.3821 0H10.7745C9.9975 0 9.36862 0.629815 9.36862 1.40584V2.81168C9.36862 4.92137 11.0847 6.63743 13.1944 6.63743Z" fill="#5A73EF"/>
<path id="Vector_5" d="M34.2257 30.2949C29.3484 30.2949 25.3802 34.2631 25.3802 39.1405C25.3802 44.03 29.3437 47.986 34.2257 47.986C39.2042 47.986 43.0712 43.9119 43.0712 39.1405C43.0712 34.3681 39.2033 30.2949 34.2257 30.2949ZM38.7422 37.9633L34.3991 42.3064C33.8499 42.8556 32.9586 42.8537 32.4112 42.3064L29.7101 39.6044C29.1609 39.0561 29.1609 38.1657 29.7101 37.6165C30.2584 37.0673 31.1488 37.0673 31.698 37.6165L33.4056 39.3242L36.7534 35.9754C37.3026 35.4262 38.193 35.4262 38.7422 35.9754C39.2914 36.5247 39.2914 37.4141 38.7422 37.9633Z" fill="#5A73EF"/>
</g>
<path id="Vector_6" d="M26.6491 47.9997C22.2301 47.9988 14.8195 47.9857 2.3347 47.9857C1.55868 47.9857 0.928864 47.3558 0.928864 46.5798V42.3623H23.0174C23.653 44.5875 24.944 46.5462 26.6491 47.9997Z" fill="#5A73EF"/>
</g>
</svg>
