<svg width="48" height="48" viewBox="0 0 48 48" fill="none" xmlns="http://www.w3.org/2000/svg">
<g id="Group">
<path id="Vector" d="M11.523 36.6826H1.84259C1.06597 36.6826 0.43634 37.3122 0.43634 38.0889V46.5939C0.43634 47.3705 1.06597 48.0001 1.84259 48.0001H12.9294V38.0889C12.9293 37.3122 12.2997 36.6826 11.523 36.6826Z" fill="#5A73EF"/>
<path id="Vector_2" d="M25.4223 28.8076H17.148C16.3714 28.8076 15.7418 29.4372 15.7418 30.2139V48.0001H26.8285V30.2139C26.8285 29.4372 26.1989 28.8076 25.4223 28.8076Z" fill="#5A73EF"/>
<path id="Vector_3" d="M44.7937 7.59469L47.6278 4.51875C48.0065 4.10813 48.1059 3.51281 47.8818 3.00187C47.6578 2.49 47.1525 2.16 46.5937 2.16H37.5282V1.40625C37.5282 0.63 36.8991 0 36.1219 0C35.3457 0 34.7157 0.63 34.7157 1.40625V17.8125H31.0472C30.2706 17.8125 29.641 18.4421 29.641 19.2188V48H40.9668C41.744 48 42.3731 47.37 42.3731 46.5938V19.2188C42.3731 18.4425 41.744 17.8125 40.9668 17.8125H37.5282V12.7809H46.5937C47.1628 12.7809 47.6756 12.4378 47.8931 11.9119C48.1106 11.3859 47.9896 10.7803 47.5865 10.3791L44.7937 7.59469Z" fill="#5A73EF"/>
<path id="Vector_4" d="M23.8642 12.0733C24.2093 12.7692 25.0528 13.0534 25.7487 12.7084C26.4445 12.3633 26.7289 11.5196 26.3838 10.8238C23.8344 5.68278 24.0923 6.20103 24.0552 6.13119C23.791 5.63188 23.2472 5.33038 22.6681 5.39038C22.6642 5.39075 22.6601 5.3916 22.6561 5.39207C22.5411 5.405 22.8483 5.34472 17.522 6.4656C16.7619 6.62553 16.2756 7.37132 16.4354 8.13135C16.5748 8.79369 17.1592 9.24828 17.8101 9.24828C18.0058 9.24828 17.8797 9.2645 20.353 8.744C18.5089 12.3637 16.1088 15.6624 13.1942 18.5772C9.62204 22.1494 5.47173 24.95 0.858575 26.9011C0.143262 27.2038 -0.191332 28.0288 0.1112 28.7441C0.413918 29.46 1.23939 29.7938 1.95414 29.4915C6.90254 27.3986 11.3533 24.3956 15.1828 20.5659C18.304 17.4447 20.8758 13.9117 22.8528 10.0342L23.8642 12.0733Z" fill="#5A73EF"/>
</g>
</svg>
