<svg width="48" height="48" viewBox="0 0 48 48" fill="none" xmlns="http://www.w3.org/2000/svg">
<g id="Group">
<path id="Vector" d="M32.9772 47.4152C33.6723 47.8435 34.547 47.852 35.2475 47.4327C36.707 46.5593 38.9141 45.0932 41.1144 43.0817C43.1474 41.2233 44.7585 39.2733 45.9028 37.2863C53.2474 24.3356 39.2424 19.0611 35.4003 27.5744C35.2348 27.9956 34.8947 28.3322 34.458 28.4509C33.7351 28.6473 33.0205 28.2619 32.7653 27.6039C31.7988 25.11 29.3454 23.4365 26.6673 23.444C22.8711 23.3843 20.1146 26.8914 20.1891 30.6082C20.2305 38.6868 29.1228 45.0401 32.9772 47.4152Z" fill="#5A73EF"/>
<path id="Vector_2" d="M19.9756 39.0436C18.8959 37.2956 18.1494 35.5227 17.7417 33.7446C16.8204 33.7444 14.462 33.6277 12.0934 31.3235C11.5492 30.7816 11.5036 29.8942 12.0292 29.3344C12.5771 28.7508 13.4947 28.7418 14.0541 29.3047C15.399 30.6584 16.8194 30.8912 17.3823 30.928C17.379 30.7808 17.3721 30.6335 17.3764 30.4865C17.3832 29.3581 17.5669 28.2502 17.9084 27.2082V15.1623H16.8026C14.8657 15.1623 13.2876 16.7276 13.2667 18.6596C13.2586 19.4038 12.705 20.0489 11.9626 20.1017C11.139 20.1604 10.4526 19.5095 10.4526 18.6984C10.4526 17.3849 10.8535 16.1632 11.5394 15.1494C11.5646 15.1077 11.5919 15.0669 11.6218 15.0272C12.9517 13.2639 12.537 11.1216 11.3658 10.0455C9.99912 8.72687 11.7322 6.7248 13.2041 7.91432C14.5419 9.1059 15.2347 10.7999 15.2516 12.5408C15.7482 12.4157 16.2677 12.3484 16.8027 12.3484H17.9086V2.0201C17.9086 1.27658 17.3976 0.6337 16.6754 0.456801C14.2965 -0.161501 11.7002 1.1477 10.7418 3.29638C10.6351 3.52345 10.3939 3.65411 10.1453 3.62035C6.72668 3.13205 3.58189 5.86826 3.60965 9.3266C3.62035 9.56222 3.48931 9.7802 3.27546 9.88093C-0.866376 11.7999 -1.14457 17.7512 2.81004 20.0436C3.19226 20.2699 3.175 20.8287 2.78387 21.0393C-0.950699 23.0082 -0.800062 28.5485 3.03844 30.3115C3.26552 30.4182 3.39617 30.6594 3.36231 30.9081C2.87336 34.3247 5.61079 37.4729 9.06857 37.4438C9.30559 37.4366 9.51935 37.5796 9.61146 37.7982C10.4458 39.7692 12.4276 41.069 14.7786 41.069L14.8274 41.0724C17.1379 41.0724 18.8576 40.0413 19.9906 39.0673C19.9856 39.0593 19.9805 39.0515 19.9756 39.0436Z" fill="#5A73EF"/>
<path id="Vector_3" d="M20.7225 16.0538C22.4169 15.1919 23.3169 13.4662 23.2276 11.9209C23.1828 11.1452 23.7753 10.48 24.551 10.4352C25.3271 10.3902 25.992 10.9829 26.0368 11.7586C26.1452 13.6351 25.4825 15.4557 24.1708 16.8851C23.2312 17.909 22.0352 18.6592 20.7224 19.0655V22.8721C22.3663 21.4224 24.4545 20.6305 26.6644 20.6305C28.5893 20.6289 30.4421 21.204 32.0184 22.3025C32.8077 22.8526 33.4997 23.5126 34.0772 24.2603C34.6192 23.5586 35.2633 22.9354 35.9928 22.4064C35.6857 21.9189 35.3429 21.4901 35.0301 21.1682C34.7525 20.8825 34.8366 20.4071 35.2009 20.2461C36.9818 19.4593 38.2544 17.8058 38.2544 15.7257C38.2544 13.6469 37.032 11.8538 35.2669 11.0254C35.0397 10.9187 34.9089 10.6774 34.9428 10.4287C35.4338 7.00086 32.6773 3.84858 29.2099 3.89332C28.9831 3.89463 28.7794 3.76397 28.6822 3.55903C27.585 1.10298 24.5262 -0.342128 21.8529 0.498095C21.1779 0.697036 20.7226 1.32866 20.7226 2.0325C20.7225 2.03241 20.7225 16.0538 20.7225 16.0538Z" fill="#5A73EF"/>
</g>
</svg>
