<svg width="48" height="42" viewBox="0 0 48 42" fill="none" xmlns="http://www.w3.org/2000/svg">
<g id="Group">
<path id="Vector" d="M42.8438 8.34375H40.5V41.1562H42.8438C45.6869 41.1562 48 38.8432 48 36V13.5C48 10.6568 45.6869 8.34375 42.8438 8.34375Z" fill="#5A73EF"/>
<path id="Vector_2" d="M0 13.5V36C0 38.8432 2.31309 41.1562 5.15625 41.1562H7.5V8.34375H5.15625C2.31309 8.34375 0 10.6568 0 13.5Z" fill="#5A73EF"/>
<path id="Vector_3" d="M32.9062 5.0625C32.9062 2.73628 31.0137 0.84375 28.6875 0.84375H19.3125C16.9863 0.84375 15.0938 2.73628 15.0938 5.0625V8.34375H10.3125V41.1562H37.6875V8.34375H32.9062V5.0625ZM26.9796 27.8428L20.4844 31.5928C19.8118 31.9811 18.9517 31.7507 18.5634 31.0781L13.4072 22.1472C13.1858 21.7639 13.1579 21.2988 13.3318 20.8917L14.8365 17.3693C14.2244 16.5325 13.4029 15.0765 13.4185 13.3001C13.4186 13.2931 13.4187 13.2862 13.4189 13.279C13.4483 12.038 13.8361 10.9041 14.6042 9.81262C14.9626 9.30338 15.4028 8.81353 15.9211 8.34366H17.9062V5.0625C17.9062 4.28709 18.5371 3.65625 19.3125 3.65625H28.6875C29.4629 3.65625 30.0938 4.28709 30.0938 5.0625V8.34375H21.1188C18.8602 9.39403 16.2922 11.0803 16.2308 13.3356C16.2254 14.4059 16.8103 15.3311 17.1738 15.8022L21.2885 16.298C21.7279 16.3509 22.1167 16.6077 22.3381 16.991L27.4943 25.9218C27.8827 26.5944 27.6521 27.4545 26.9796 27.8428ZM34.7812 18.1875C34.7812 20.5137 32.8887 22.4062 30.5625 22.4062C28.2363 22.4062 26.3438 20.5137 26.3438 18.1875C26.3438 15.8613 28.2363 13.9688 30.5625 13.9688C32.8887 13.9688 34.7812 15.8613 34.7812 18.1875Z" fill="#5A73EF"/>
<path id="Vector_4" d="M17.3452 18.6558L16.1943 21.3499L20.2959 28.454L24.3554 26.1103L20.2539 19.0061L17.3452 18.6558Z" fill="#5A73EF"/>
<path id="Vector_5" d="M30.5625 19.5938C31.3392 19.5938 31.9688 18.9642 31.9688 18.1875C31.9688 17.4108 31.3392 16.7812 30.5625 16.7812C29.7858 16.7812 29.1562 17.4108 29.1562 18.1875C29.1562 18.9642 29.7858 19.5938 30.5625 19.5938Z" fill="#5A73EF"/>
</g>
</svg>
